<?xml version="1.0" encoding="utf-8"?>
<!-- Generator: Adobe Illustrator 23.0.1, SVG Export Plug-In . SVG Version: 6.00 Build 0)  -->
<svg version="1.1" id="Capa_1" xmlns="http://www.w3.org/2000/svg" xmlns:xlink="http://www.w3.org/1999/xlink" x="0px" y="0px"
	 viewBox="0 0 512 512" style="enable-background:new 0 0 512 512;" xml:space="preserve">
<style type="text/css">
	.st0{fill:#47B2E4;}
</style>
<g>
	<g>
		<path class="st0" d="M247.1,222.9c-4.8,5-10.8,7.7-16.9,7.5c-5.8-0.1-11.2-2.7-15.3-7.3c-2.7-3.1-7.5-3.4-10.6-0.6
			c-3.1,2.7-3.4,7.5-0.6,10.6c6.9,7.8,16.2,12.1,26.2,12.3c0.2,0,0.5,0,0.7,0c10.1,0,19.7-4.3,27.2-12.1c2.9-3,2.8-7.7-0.2-10.6
			S249.9,220,247.1,222.9L247.1,222.9z"/>
		<path class="st0" d="M385,466.6h15.8c10.1,0,18.4-8.2,18.4-18.4v-17.9h18c10.1,0,18.4-8.2,18.4-18.4V396
			c0-10.1-8.2-18.4-18.4-18.4h-18v-17.9c0-10.1-8.2-18.4-18.4-18.4H385c-10.1,0-18.4,8.2-18.4,18.4v17.9h-18
			c-10.1,0-18.4,8.2-18.4,18.4v15.9c0,10.1,8.2,18.4,18.4,18.4h18v17.9C366.6,458.3,374.8,466.6,385,466.6z M348.6,415.3
			c-1.8,0-3.4-1.5-3.4-3.4V396c0-1.8,1.5-3.4,3.4-3.4h25.5c4.1,0,7.5-3.4,7.5-7.5v-25.4c0-1.9,1.5-3.4,3.4-3.4h15.8
			c1.9,0,3.4,1.5,3.4,3.4v25.4c0,4.1,3.4,7.5,7.5,7.5h25.5c1.8,0,3.4,1.5,3.4,3.4v15.9c0,1.8-1.5,3.4-3.4,3.4h-25.5
			c-4.1,0-7.5,3.4-7.5,7.5v25.4c0,1.9-1.5,3.4-3.4,3.4H385c-1.9,0-3.4-1.5-3.4-3.4v-25.4c0-4.1-3.4-7.5-7.5-7.5H348.6z"/>
		<path class="st0" d="M488.3,353.3c-1.9-3.7-6.5-5-10.1-3.1s-5,6.5-3.1,10.1c24,45.3,6.8,101.7-38.5,125.7
			c-21.9,11.6-47.1,14.1-70.8,6.8c-10.1-3.1-19.5-7.8-27.8-13.9c-0.2-0.1-0.3-0.2-0.5-0.3c-10.9-8.1-20-18.6-26.6-31
			c-11.7-21.9-14.1-47.1-6.8-70.9c7.3-23.7,23.4-43.2,45.3-54.9c35.5-18.8,78.8-12.9,107.8,14.8c3.2,3.1,8.5,2.7,11.2-1
			c2.3-3.1,1.7-7.4-1.1-10.1c-32.5-30.9-80.3-38.3-120.6-19.3c-19.7-7.1-55.2-16.5-55.5-16.6c0,0,0-17.2,0-25
			c24.4-18,43.7-44.3,51.3-70.4c22-2.3,37-16.3,37-35.5v-10.8c0-4.4-1.2-8.6-3.2-12.2V92.5c0-44.5-36.1-80.7-80.7-80.7h-14
			C266.4,4.3,249.1,0,230.9,0s-35.5,4.3-50.8,11.8h-14c-44.5,0-80.7,36.1-80.7,80.7v43.4c-2,3.6-3.2,7.8-3.2,12.2v10.8
			c0,19.2,14.9,33.2,37,35.5c7.6,26.1,26.9,52.4,51.3,70.4c0,7.8,0,25,0,25c-0.3,0.1-0.7,0.2-1.3,0.4c-18.4,4.7-37.9,9.9-56.8,17.1
			c-3.8,1.5-6,5.7-4.7,9.6c1.1,3.1,4,5,7.1,5c0.9,0,1.8-0.2,2.7-0.5c18.1-6.9,37-12,54.9-16.6c6.8,25.9,30.4,45.1,58.4,45.1
			c28,0,51.6-19.2,58.4-45.1c13.8,3.5,27.3,7.1,40.5,11.5c-19.1,13.7-33.1,33.1-40.1,56c-8.5,27.6-5.6,56.8,7.9,82.3
			c4.4,8.4,9.9,16,16.2,22.8H109.9v-42.8c0-4.1-3.2-7.7-7.3-7.8c-4.2-0.1-7.7,3.3-7.7,7.5v43.1c0,0-66.1,0-66.7,0
			c-1.2-0.1-2-1.2-1.8-2.3c0,0,0,0,0,0l15.9-81.4c4.6-23.8,19.4-42.8,45.2-58c3.5-2.1,5-6.6,3-10.2c-2-3.7-6.7-5-10.4-2.9
			c-29.4,17.3-47.1,40.2-52.6,68.2l-15.9,81.4c-0.5,2.3-1.8,9.4,2.5,14.7c4,4.9,10.7,5.5,16,5.5h300.6c9.2,6.4,19.4,11.4,30.4,14.8
			c10.4,3.2,21.1,4.8,31.8,4.8c17.4,0,34.7-4.3,50.5-12.7C496.1,471.4,516.2,405.9,488.3,353.3L488.3,353.3z M364.5,148.1v10.8
			c0,11.1-8.5,17.4-18.8,19.8c0.3-2.6,0.4-5.1,0.4-7.7v-32.6l0.1,0l8.8,0C360.1,138.4,364.5,142.8,364.5,148.1L364.5,148.1z
			 M361.3,92.5v31.7c-2-0.5-4.2-0.8-6.4-0.8h-8.9v-8.2c0-35-15.7-66.5-40.5-87.6C337.1,32.4,361.3,59.7,361.3,92.5z M231.5,15
			c55.3,0.3,99.6,46,99.6,101.3v10.5l-26.2,16.9c-5.6-9.6-16-16.1-27.9-16.1c-15.2,0-28,10.6-31.4,24.8h-29.2
			c-3.4-14.2-16.2-24.8-31.4-24.8c-11.9,0-22.3,6.5-27.9,16.1l-26.2-16.9v-11.6C130.7,59.7,176,14.7,231.5,15z M294.3,160
			c0,10.2-8.9,18.4-19.3,17.2c-7.9-0.9-14.3-7.3-15.2-15.2c-1.2-10.4,7-19.3,17.2-19.3c8.3,0,15.2,5.9,16.9,13.6
			c0,0.1,0,0.2,0.1,0.3C294.1,157.7,294.3,158.8,294.3,160z M202.1,162c-0.9,7.9-7.3,14.3-15.2,15.2c-10.4,1.2-19.3-7-19.3-17.2
			c0-1.2,0.1-2.3,0.3-3.4c0-0.1,0-0.2,0.1-0.3c1.7-7.8,8.6-13.6,16.9-13.6C195.1,142.7,203.2,151.5,202.1,162z M97.3,158.9v-10.8
			c0-5.3,4.4-9.8,9.6-9.8h8.9V171c0,2.5,0.1,5.1,0.4,7.7C105.8,176.3,97.3,170,97.3,158.9L97.3,158.9z M115.7,115.2v8.2h-8.9
			c-2.2,0-4.3,0.3-6.4,0.8V92.5c0-32.8,24.2-60.1,55.7-64.9C131.5,48.7,115.7,80.1,115.7,115.2L115.7,115.2z M276.2,289.7
			c0,24.7-19.9,44.9-44.5,45.3c-25.3,0.4-46.1-20.8-46.1-46.1v-14.5c5.1,2.8,10.4,5.3,15.7,7.3c10.9,4,20.3,5.9,29.6,5.9
			s18.7-1.9,29.6-5.9c5.4-2,10.6-4.4,15.7-7.2V289.7z M255.3,267.6c-9.2,3.4-16.9,5-24.4,5s-15.2-1.6-24.4-4.9
			c-40.4-15-75.8-60.1-75.8-96.6v-26.3l21.9,14.1c0,0.4,0,0.8,0,1.2c0,17.8,14.5,32.3,32.3,32.3c15.2,0,28.1-10.6,31.4-24.8h29.2
			c3.4,14.2,16.2,24.8,31.4,24.8c17.8,0,32.3-14.5,32.3-32.3c0-0.4,0-0.8,0-1.2l21.9-14.1V171C331.1,207.5,295.7,252.6,255.3,267.6
			L255.3,267.6z"/>
		<path class="st0" d="M208.6,65c15.2-4.2,29.4-4.2,44.6,0c0.7,0.2,1.3,0.3,2,0.3c3.3,0,6.3-2.2,7.2-5.5c1.1-4-1.2-8.1-5.2-9.2
			c-18-5-34.7-5-52.7,0c-4,1.1-6.3,5.2-5.2,9.2C200.5,63.8,204.6,66.1,208.6,65L208.6,65z"/>
		<path class="st0" d="M182.9,94.7c32.8-9.1,63.3-9.1,96.1,0c0.7,0.2,1.3,0.3,2,0.3c3.3,0,6.3-2.2,7.2-5.5c1.1-4-1.2-8.1-5.2-9.2
			c-35.5-9.9-68.6-9.9-104.1,0c-4,1.1-6.3,5.2-5.2,9.2C174.7,93.5,178.9,95.8,182.9,94.7z"/>
	</g>
</g>
</svg>
