<?xml version="1.0" encoding="utf-8"?>
<!-- Generator: Adobe Illustrator 23.0.1, SVG Export Plug-In . SVG Version: 6.00 Build 0)  -->
<svg version="1.1" id="Layer_1" xmlns="http://www.w3.org/2000/svg" xmlns:xlink="http://www.w3.org/1999/xlink" x="0px" y="0px"
	 viewBox="0 0 512 512" style="enable-background:new 0 0 512 512;" xml:space="preserve">
<style type="text/css">
	.st0{fill:#47B2E4;}
</style>
<g id="house-stay_at_home-coronavirus-covid-covid19">
	<path class="st0" d="M492,153.1L456,132V56c0-4.4-3.6-8-8-8h-64c-4.4,0-8,3.6-8,8v29.1l-116-68c-2.5-1.5-5.6-1.5-8.1,0l-232,136
		c-2.5,1.4-4,4.1-4,6.9v48c0,4.4,3.6,8,8,8c1.4,0,2.8-0.4,4.1-1.1L256,81.3l227.8,133.6c3.8,2.3,8.7,1.1,11-2.7
		c0.8-1.3,1.2-2.7,1.2-4.2v-48C496,157.2,494.5,154.5,492,153.1z M392,64h48v58.6l-48-28.1V64z M480,194L260,65.1
		c-2.5-1.5-5.6-1.5-8.1,0L32,194v-29.4L256,33.3l224,131.3V194z"/>
	<path class="st0" d="M468,217L260,97c-2.5-1.4-5.5-1.4-8,0L44,217c-2.5,1.4-4,4.1-4,7v264c0,4.4,3.6,8,8,8h416c4.4,0,8-3.6,8-8V224
		C472,221.1,470.5,218.5,468,217z M456,480H56V228.6l200-115.4l200,115.4V480z"/>
	<path class="st0" d="M365.7,281.4c22.9-20.8,24.7-56.2,3.9-79.1s-56.2-24.7-79.1-3.9c-6.5,5.9-11.5,13.2-14.6,21.3
		c-6.3-2.4-13.1-3.7-19.8-3.7c-6.8,0-13.6,1.3-19.9,3.8c-8.2-21.6-29-35.9-52.1-35.8c-30.9,0-56,25-56,55.9
		c0,15.8,6.6,30.8,18.3,41.5c-33.8,6.6-58.3,36.2-58.3,70.6v88c0,4.4,3.6,8,8,8h64v16c0,4.4,3.6,8,8,8h176c4.4,0,8-3.6,8-8v-16h64
		c4.4,0,8-3.6,8-8v-88C423.9,317.5,399.5,287.9,365.7,281.4z M328,200c22.1,0,40,17.9,40,40c0,22.1-17.9,40-40,40
		c-5.6,0-11.1-1.2-16.2-3.4c0.2-1.5,0.2-3,0.2-4.6c0-17.4-8.1-33.7-21.9-44.3C295.4,211.2,310.7,200.1,328,200z M256,232
		c22.1,0,40,17.9,40,40s-17.9,40-40,40s-40-17.9-40-40S233.9,232,256,232z M144,240c0-22,17.8-40,39.8-40
		c17.4,0,32.8,11.2,38.1,27.7C208.1,238.3,200,254.6,200,272c0,1.5,0.1,3,0.2,4.6c-20.2,9-43.8-0.1-52.8-20.3
		C145.2,251.1,144,245.6,144,240z M160,384v48h-56v-80c0-30.9,25.1-56,56-56h45.5c3.1,6.5,7.5,12.4,12.8,17.4
		C184.5,319.9,160.1,349.5,160,384z M336,456h-16.7l-7.3-72.8l-16,1.6l7.1,71.2h-94.2l7.1-71.2l-16-1.6l-7.3,72.8H176v-72
		c0-30.9,25.1-56,56-56h48c30.9,0,56,25.1,56,56V456z M408,432h-56v-48c-0.1-34.5-24.5-64.1-58.3-70.6c5.3-4.9,9.7-10.8,12.8-17.4
		H352c30.9,0,56,25.1,56,56V432z"/>
</g>
</svg>
