<?xml version="1.0" encoding="utf-8"?>
<!-- Generator: Adobe Illustrator 23.0.1, SVG Export Plug-In . SVG Version: 6.00 Build 0)  -->
<svg version="1.1" id="Capa_1" xmlns="http://www.w3.org/2000/svg" xmlns:xlink="http://www.w3.org/1999/xlink" x="0px" y="0px"
	 viewBox="0 0 512 512" style="enable-background:new 0 0 512 512;" xml:space="preserve">
<style type="text/css">
	.st0{fill:#47B2E4;}
</style>
<g>
	<g>
		<path class="st0" d="M428.3,155.6c-22.4,0-40.6,18.2-40.6,40.6s18.2,40.6,40.6,40.6c22.4,0,40.6-18.2,40.6-40.6
			C468.9,173.8,450.7,155.6,428.3,155.6z M428.3,221.8c-14.1,0-25.6-11.5-25.6-25.6c0-14.1,11.5-25.6,25.6-25.6
			c14.1,0,25.6,11.5,25.6,25.6S442.4,221.8,428.3,221.8z"/>
	</g>
</g>
<g>
	<g>
		<path class="st0" d="M499.8,163.8c-1.7-3.8-6.2-5.4-9.9-3.7c-3.8,1.7-5.4,6.2-3.7,9.9c3.8,8.3,5.7,17.1,5.7,26.2
			c0,29.2-19.8,53.8-46.6,61.2c-10.8,3-23,3.3-33.8,0c-26.8-7.4-46.6-32-46.6-61.2c0-35,28.5-63.5,63.5-63.5
			c15.3,0,30.1,5.5,41.6,15.6c3.1,2.7,7.9,2.4,10.6-0.7s2.4-7.9-0.7-10.6c-14.3-12.4-32.6-19.3-51.5-19.3
			c-43.3,0-78.5,35.2-78.5,78.5c0,33.8,21.5,62.7,51.5,73.7v79.6c0,59.9-48.7,108.6-108.6,108.6c-59.9,0-108.6-48.7-108.6-108.6
			v-25.9v-68.9c11-4,21.1-10.5,29.4-19l67.3-69.4c18.1-17,28.5-41.1,28.5-66c0-22.5-8.4-44.1-23.5-60.8
			c-13.5-14.9-31.5-24.8-51.1-28.3C233.9,4.9,228.5,0,221.9,0c-20.2,0-36.7,16.5-36.7,36.7c0,20.2,16.5,36.7,36.7,36.7
			c4.9,0,9.2-2.7,11.4-6.7c13.2,5.7,22.2,18.8,22.2,33.7c0,10.2-4.3,20-11.8,26.9c-0.4,0.3-68.8,70.9-68.8,71
			c-9.5,9.8-25.7,9.8-35.2,0c0,0-68.4-70.6-68.8-71c-7.5-6.9-11.8-16.7-11.8-26.9c0-14.8,9-28,22.2-33.7c2.2,4,6.5,6.7,11.4,6.7
			c20.2,0,36.7-16.5,36.7-36.7C129.3,16.5,112.9,0,92.6,0c-6.5,0-11.9,4.9-12.8,11.2c-19.6,3.5-37.5,13.4-51.1,28.3
			C13.5,56.2,5.2,77.8,5.2,100.3c0,24.9,10.4,48.9,28.5,66l67.3,69.4c8.3,8.5,18.4,15,29.4,19v68.9v25.9c0,31,8.8,61.1,25.5,87.2
			c2.2,3.5,6.9,4.5,10.4,2.3c3.5-2.2,4.5-6.9,2.3-10.4c-15.1-23.7-23.1-51-23.1-79.1v-18.4h23.9v18.4c0,68.1,55.4,123.6,123.6,123.6
			c68.1,0,123.6-55.4,123.6-123.6v-75.8c7.9,1.2,16,1.2,23.9,0v75.8c0,81.3-66.2,147.5-147.5,147.5c-40.6,0-78.5-16.2-106.6-45.7
			c-2.9-3-7.6-3.1-10.6-0.2c-3,2.9-3.1,7.6-0.2,10.6c31,32.5,72.7,50.3,117.5,50.3c89.6,0,162.5-72.9,162.5-162.5v-79.6
			c30-11,51.5-39.9,51.5-73.7C506.8,184.9,504.5,174,499.8,163.8z M219.9,58.3c-11-1-19.7-10.3-19.7-21.6c0-11.3,8.7-20.6,19.7-21.6
			L219.9,58.3L219.9,58.3z M94.7,15.1c11,1,19.7,10.3,19.7,21.6c0,11.3-8.7,20.6-19.7,21.6V15.1z M169.2,316.1h-23.9v-57.5
			c7.9,1.2,16,1.2,23.9,0V316.1z M174.7,242c-11.3,3.4-23.4,3.1-34.8,0c0,0-0.1,0-0.1,0c-10.6-3-20.3-8.8-28.1-16.8
			c0,0-67.6-69.7-67.6-69.8c-15.2-14.2-23.9-34.3-23.9-55.1c0-18.8,7-36.8,19.6-50.7c10.7-11.7,24.6-19.8,39.8-23.1v24.7
			c-20.9,6.9-35.6,26.6-35.6,49.1c0,14.4,6.1,28.2,16.6,37.9c0.2,0.1,68.2,70.4,68.2,70.4c15.3,15.8,41.5,15.8,56.7,0
			c0,0,68.1-70.2,68.2-70.4c10.6-9.7,16.6-23.6,16.6-37.9c0-22.5-14.6-42.2-35.6-49.1V26.5c15.3,3.3,29.2,11.3,39.8,23.1
			c12.7,13.9,19.6,31.9,19.6,50.7c0,20.8-8.7,40.9-23.9,55.1c-0.1,0.1-0.2,0.2-0.3,0.3l-67.4,69.5
			C195.1,233.2,185.3,238.9,174.7,242C174.7,242,174.7,242,174.7,242z"/>
	</g>
</g>
</svg>
