<?xml version="1.0" encoding="utf-8"?>
<!-- Generator: Adobe Illustrator 23.0.1, SVG Export Plug-In . SVG Version: 6.00 Build 0)  -->
<svg version="1.1" id="Layer_1" xmlns="http://www.w3.org/2000/svg" xmlns:xlink="http://www.w3.org/1999/xlink" x="0px" y="0px"
	 viewBox="0 0 480 480" style="enable-background:new 0 0 480 480;" xml:space="preserve">
<style type="text/css">
	.st0{fill:#47B2E4;}
</style>
<path class="st0" d="M328,344h-8c-2.1,0-4.2,0.8-5.7,2.3L240,420.7l-74.3-74.3c-1.5-1.5-3.5-2.3-5.7-2.3l-8.8,0
	C53.7,353.8,0,399.2,0,472c0,4.4,3.6,8,8,8s8-3.6,8-8c0-71.6,57.7-99.1,113.5-108.9l-8.7,17.3c-2,4-0.4,8.8,3.6,10.7l27.6,13.8V432
	c0,3.5,2.3,6.6,5.7,7.7L232,462v10c0,4.4,3.6,8,8,8s8-3.6,8-8v-10l74.3-22.3c3.4-1,5.7-4.1,5.7-7.7v-27.1l27.6-13.7
	c4-2,5.6-6.8,3.6-10.7l-8.6-17.3C406.7,373.1,464,400.7,464,472c0,4.4,3.6,8,8,8s8-3.6,8-8C480,399.2,426.3,353.8,328,344z M168,426
	v-26c0-3-1.7-5.8-4.4-7.2l-24.8-12.4l10-20c1.1-0.1,2.2-0.3,3.2-0.4h4.7l75.3,75.3v9.9L168,426z M341.3,380.4l-24.8,12.4
	c-2.7,1.4-4.4,4.1-4.4,7.1v26l-64,19.2v-9.9l75.3-75.3h3.9c1.3,0.1,2.7,0.3,4.1,0.5L341.3,380.4z"/>
<path class="st0" d="M91.1,278.3c29.7,21.9,64.4,35.8,100.9,40.7v25c0,4.4,3.6,8,8,8s8-3.6,8-8v-24.5c10,5,20.9,7.9,32,8.5
	c11.1-0.6,22-3.5,32-8.5V344c0,4.4,3.6,8,8,8s8-3.6,8-8v-25c36.5-4.8,71.3-18.8,100.9-40.7c18.9-14.8,13.2-71.4-18.8-183.6
	c-0.7-2.6-1.3-4.6-1.8-6.2l15-37.5c1.5-3.7,0-7.9-3.4-9.9C320.3,7,280.9,0,240,0s-80.3,7-140,41.1c-3.5,2-4.9,6.2-3.5,9.9l15,37.5
	c-0.4,1.6-1,3.6-1.8,6.2C77.9,206.9,72.1,263.5,91.1,278.3z M152,224v-42.7c44.2-7.5,86.8-22,126.4-42.9
	c9.3,10.4,30.1,32.2,49.6,41.4V224c0,47.3-59,88-88,88S152,271.3,152,224z M120,200c0-8.8,7.2-16,16-16v32
	C127.2,216,120,208.8,120,200z M344,184c8.8,0,16,7.2,16,16s-7.2,16-16,16V184z M240,16c37,0,72.8,6.2,126,35.5l-26,64.8
	C308.1,99.8,258.1,96,240,96s-68.1,3.8-100,20.4l-26-64.8C167.2,22.2,203,16,240,16z M128.6,131c0.9,2.3,2.8,4,5.1,4.7
	s4.8,0.3,6.8-1c24.4-16.5,74-22.6,99.5-22.6s75.2,6.1,99.5,22.6c2,1.4,4.5,1.7,6.8,1s4.2-2.4,5.1-4.7l7.2-18.1
	c35.4,128.5,24.7,149.4,20.4,152.8c-22.9,16.7-49,28.5-76.7,34.5c20.8-17.1,38.1-40.9,41-68.2h0.6c17.7,0,32-14.3,32-32
	s-14.3-32-32-32c-14.7,0-43.3-27.7-57.9-45.1c-2.6-3.1-7.2-3.8-10.6-1.5c-0.5,0.3-48,31.3-140.9,46.8c-17.6,0.4-31.6,15-31.3,32.6
	c0.4,17.6,15,31.6,32.6,31.3h0.6c2.9,27.3,20.2,51.1,41,68.2c-27.7-6-53.8-17.8-76.7-34.5c-4.3-3.4-15-24.3,20.4-152.8L128.6,131z"
	/>
<path class="st0" d="M259,257.8c-11.3,8.3-26.7,8.3-38,0c-2.2-1.9-5.3-2.5-8-1.4c-2.7,1-4.7,3.5-5.1,6.4c-0.4,2.9,0.8,5.8,3.1,7.5
	c17.1,13.1,40.9,13.1,58,0c2.3-1.8,3.5-4.6,3.1-7.5c-0.4-2.9-2.4-5.3-5.1-6.4C264.3,255.3,261.2,255.9,259,257.8z"/>
<path class="st0" d="M304,200c0,8.8-7.2,16-16,16s-16-7.2-16-16s7.2-16,16-16S304,191.2,304,200z"/>
<path class="st0" d="M208,200c0,8.8-7.2,16-16,16s-16-7.2-16-16s7.2-16,16-16S208,191.2,208,200z"/>
<path class="st0" d="M224,64h8v8c0,4.4,3.6,8,8,8s8-3.6,8-8v-8h8c4.4,0,8-3.6,8-8s-3.6-8-8-8h-8v-8c0-4.4-3.6-8-8-8s-8,3.6-8,8v8h-8
	c-4.4,0-8,3.6-8,8S219.6,64,224,64z"/>
</svg>
