<?xml version="1.0" encoding="utf-8"?>
<!-- Generator: Adobe Illustrator 23.0.1, SVG Export Plug-In . SVG Version: 6.00 Build 0)  -->
<svg version="1.1" id="Capa_1" xmlns="http://www.w3.org/2000/svg" xmlns:xlink="http://www.w3.org/1999/xlink" x="0px" y="0px"
	 viewBox="0 0 512 512" style="enable-background:new 0 0 512 512;" xml:space="preserve">
<style type="text/css">
	.st0{fill:#47B2E4;}
</style>
<g id="XMLID_1377_">
	<path id="XMLID_1387_" class="st0" d="M435.8,105.4h-74.1V66.3c0-28.3-23-51.3-51.3-51.3H201.6c-28.3,0-51.3,23-51.3,51.3v39.1
		H76.2c-42,0-76.2,34.2-76.2,76.3v239c0,42,34.2,76.2,76.2,76.2h359.5c42,0,76.2-34.2,76.2-76.2v-239
		C512,139.6,477.8,105.4,435.8,105.4L435.8,105.4z M180.4,66.3c0-11.7,9.5-21.3,21.3-21.3h108.7c11.7,0,21.3,9.5,21.3,21.3v39.1
		H180.4L180.4,66.3z M30,420.7v-239c0-20.3,13.1-37.5,31.2-43.7v326.5C43.1,458.2,30,440.9,30,420.7z M91.2,466.9V135.4h329.5v331.5
		H91.2z M482,420.7c0,20.3-13.1,37.5-31.2,43.7V137.9c18.2,6.2,31.2,23.5,31.2,43.7V420.7z"/>
	<path id="XMLID_1393_" class="st0" d="M346.4,256.1h-45.3v-45.3c0-8.3-6.7-15-15-15h-60.3c-8.3,0-15,6.7-15,15v45.3h-45.3
		c-8.3,0-15,6.7-15,15v60.3c0,8.3,6.7,15,15,15h45.3v45.3c0,8.3,6.7,15,15,15h60.3c8.3,0,15-6.7,15-15v-45.3h45.3
		c8.3,0,15-6.7,15-15v-60.3C361.4,262.8,354.7,256.1,346.4,256.1z M331.4,316.3h-45.3c-8.3,0-15,6.7-15,15v45.3h-30.3v-45.3
		c0-8.3-6.7-15-15-15h-45.3v-30.3h45.3c8.3,0,15-6.7,15-15v-45.3h30.3v45.3c0,8.3,6.7,15,15,15h45.3V316.3z"/>
</g>
</svg>
