<?xml version="1.0" encoding="utf-8"?>
<!-- Generator: Adobe Illustrator 23.0.1, SVG Export Plug-In . SVG Version: 6.00 Build 0)  -->
<svg version="1.1" id="Capa_1" xmlns="http://www.w3.org/2000/svg" xmlns:xlink="http://www.w3.org/1999/xlink" x="0px" y="0px"
	 viewBox="0 0 512 512" style="enable-background:new 0 0 512 512;" xml:space="preserve">
<style type="text/css">
	.st0{fill:#47B2E4;}
</style>
<g>
	<path class="st0" d="M504.5,424.3C504.5,424.3,504.5,424.3,504.5,424.3l-28.7,0l0-24.2c0-4.1-3.4-7.5-7.5-7.5c0,0,0,0,0,0
		c-4.1,0-7.5,3.4-7.5,7.5l0,24.2l-112.3,0.1l-0.1-96.2l77.7-0.1c4,0,7.7-1.6,10.5-4.4c2.8-2.8,4.3-6.5,4.3-10.5l-0.1-78.4
		c0-4-1.6-7.7-4.4-10.5c-2.8-2.8-6.5-4.3-10.5-4.3c0,0,0,0,0,0l-77.7,0.1l0-31l112.3-0.1l0.2,177.1c0,4.1,3.4,7.5,7.5,7.5h0
		c4.1,0,7.5-3.4,7.5-7.5L475.5,189l14.8,0c11.4,0,20.7-9.3,20.7-20.7l0-19.7c0-11.4-9.3-20.7-20.7-20.7c0,0,0,0,0,0l-48.1,0.1
		c-4.1,0-7.5,3.4-7.5,7.5c0,4.1,3.4,7.5,7.5,7.5h0l48.1-0.1h0c3.1,0,5.7,2.5,5.7,5.7l0,19.7c0,3.1-2.5,5.7-5.7,5.7l-142.1,0.2l0-31
		l60-0.1c4.1,0,7.5-3.4,7.5-7.5c0-4.1-3.4-7.5-7.5-7.5c0,0,0,0,0,0l-60,0.1l0-35.2c0-5.5-2.2-10.7-6.1-14.6
		c-3.9-3.9-9.1-6.1-14.6-6.1c0,0,0,0,0,0l-143.6,0.2c-5.5,0-10.7,2.2-14.6,6.1c-3.9,3.9-6.1,9.1-6.1,14.7l0,35.2l-142.1,0.2
		c-5.5,0-10.7,2.2-14.6,6.1c-3.9,3.9-6,9.1-6,14.6l0,19.7c0,5.5,2.2,10.7,6.1,14.6c3.9,3.9,9.1,6,14.6,6h0l14.9,0V212
		c0,4.1,3.4,7.5,7.5,7.5s7.5-3.4,7.5-7.5v-22.5l112.2-0.1l0,31l-77.7,0.1c-4,0-7.7,1.6-10.5,4.4s-4.3,6.5-4.3,10.5l0.1,78.4
		c0,4,1.6,7.7,4.4,10.5c2.8,2.8,6.5,4.3,10.5,4.3h0l77.7-0.1l0.1,96.2L51,424.8V246c0-4.1-3.4-7.5-7.5-7.5S36,241.8,36,246v178.8
		l-28.5,0c-4.1,0-7.5,3.4-7.5,7.5c0,4.1,3.4,7.5,7.5,7.5h0l497-0.6c4.1,0,7.5-3.4,7.5-7.5C512,427.6,508.6,424.3,504.5,424.3
		L504.5,424.3z M425.8,235.1l0.1,78.1l-77.5,0.1l-0.1-78.1L425.8,235.1z M21.1,174.5C21.1,174.5,21.1,174.5,21.1,174.5
		c-1.5,0-2.9-0.6-4-1.7c-1.1-1.1-1.7-2.5-1.7-4l0-19.7c0-1.5,0.6-2.9,1.7-4c1.1-1.1,2.5-1.7,4-1.7l142.1-0.2l0,31L21.1,174.5z
		 M85.8,313.6l-0.1-78.1l77.5-0.1l0.1,78.1L85.8,313.6z M178.1,93c0-1.5,0.6-3,1.7-4c1.1-1.1,2.5-1.7,4-1.7l143.6-0.2h0
		c3.1,0,5.7,2.6,5.7,5.7l0.4,331.6l-18.8,0l-0.2-132.4c0-6.3-2.4-12.3-6.8-16.8c-4.4-4.5-10.3-7-16.6-7c0,0,0,0,0,0l-70.5,0.1
		c-6.3,0-12.2,2.5-16.6,7c-4.4,4.5-6.8,10.4-6.8,16.8l0.2,132.4l-18.8,0L178.1,93z M212.1,292.3c0-2.4,0.9-4.6,2.5-6.3
		c1.6-1.6,3.7-2.5,5.9-2.5l70.5-0.1h0c2.2,0,4.3,0.9,5.9,2.5c1.6,1.7,2.5,3.9,2.5,6.3l0.2,132.4l-87.4,0.1L212.1,292.3z"/>
	<path class="st0" d="M207.2,200.3L207.2,200.3l25,0l0,25c0,7.7,6.3,14,14,14h0l19,0c3.7,0,7.3-1.5,9.9-4.1c2.6-2.6,4.1-6.2,4.1-9.9
		l0-25l25,0c7.7,0,14-6.3,14-14l0-19c0-3.7-1.5-7.3-4.1-9.9c-2.6-2.6-6.2-4.1-9.9-4.1c0,0,0,0,0,0l-25,0l0-25c0-3.7-1.5-7.3-4.1-9.9
		c-2.6-2.6-6.2-4.1-9.9-4.1c0,0,0,0,0,0l-19,0c-3.7,0-7.3,1.5-9.9,4.1c-2.6,2.6-4.1,6.2-4.1,9.9l0,25l-25,0c-3.7,0-7.3,1.5-9.9,4.1
		c-2.6,2.6-4.1,6.2-4.1,9.9l0,19c0,3.7,1.5,7.3,4.1,9.9C199.9,198.9,203.4,200.3,207.2,200.3L207.2,200.3z M239.7,168.2
		c4.1,0,7.5-3.4,7.5-7.5l0-31.5l17,0l0,31.5c0,0.3,0,0.5,0,0.8c0.4,3.8,3.6,6.7,7.5,6.7h0l31.5,0l0,17l-31.5,0
		c-4.1,0-7.5,3.4-7.5,7.5l0,31.5l-17,0l0-31.5c0-4.1-3.4-7.5-7.5-7.5c0,0,0,0,0,0l-31.5,0l0-17L239.7,168.2z"/>
</g>
</svg>
