<?xml version="1.0" encoding="utf-8"?>
<!-- Generator: Adobe Illustrator 23.0.1, SVG Export Plug-In . SVG Version: 6.00 Build 0)  -->
<svg version="1.1" id="Layer_1" xmlns="http://www.w3.org/2000/svg" xmlns:xlink="http://www.w3.org/1999/xlink" x="0px" y="0px"
	 viewBox="0 0 477 477" style="enable-background:new 0 0 477 477;" xml:space="preserve">
<style type="text/css">
	.st0{fill:#47B2E4;}
</style>
<path class="st0" d="M114.5,371.6h-26c-2.6-0.1-5.2,0.9-7,2.8c-1.9,1.8-2.9,4.3-3,7v70.8c0,5.5,4.5,10.5,10,10.5h300
	c5.5,0,10-4.9,10-10.5v-70.8c0-2.6-1.1-5.1-3-7c-1.9-1.8-4.4-2.8-7-2.8h-26V235.4c0-68.6-55.4-124.9-124-124.9h0
	c-68.6,0-124,56.3-124,124.9V371.6z M378.5,442.6h-280v-51h280V442.6z M134.5,235.4c0-57.6,46.4-104.9,104-104.9h0
	c57.6,0,104,47.3,104,104.9v136.1h-208V235.4z"/>
<path class="st0" d="M297.2,236.6h-29.7v-30.7c-0.1-5.6-4.6-10.2-10.2-10.3h-37.6c-5.6,0.1-10.1,4.6-10.2,10.3v30.7h-29.7
	c-5.6,0.1-10.2,4.7-10.3,10.3v38.6c0.1,5.6,4.7,10.1,10.3,10.1h29.7v31c0.1,5.6,4.6,10,10.2,10h37.6c5.6,0,10.1-4.5,10.2-10v-31
	h29.7c5.6,0,10.2-4.5,10.3-10.1v-38.6C307.4,241.2,302.8,236.7,297.2,236.6z M287.5,275.6h-30.2c-2.6,0-5.1,1-7,2.9s-2.9,4.4-2.8,7
	v31.1h-18v-31.1c0-2.6-1-5.2-2.8-7s-4.4-2.9-7-2.9h-30.2v-19h30.2c2.6,0.1,5.1-0.9,6.9-2.8c1.8-1.8,2.9-4.3,2.8-6.9v-31.3h18v31.3
	c0,2.6,1,5.1,2.8,6.9c1.8,1.8,4.4,2.8,6.9,2.8h30.2V275.6z"/>
<path class="st0" d="M238.5,98.5c5.5,0,10-4.5,10-10V25c0-5.5-4.5-10-10-10s-10,4.5-10,10v63.5C228.5,94,233,98.5,238.5,98.5z"/>
<path class="st0" d="M467,249.6h-61.8c-5.5,0-10,4.5-10,10c0,5.5,4.5,10,10,10H467c5.5,0,10-4.5,10-10
	C477,254,472.5,249.6,467,249.6z"/>
<path class="st0" d="M81.8,259.6c0-5.5-4.5-10-10-10H10c-5.5,0-10,4.5-10,10c0,5.5,4.5,10,10,10h61.8
	C77.3,269.6,81.8,265.1,81.8,259.6z"/>
<path class="st0" d="M113.4,145.7c2.5,2.6,6.2,3.6,9.6,2.8c3.5-0.9,6.2-3.5,7.2-7c1-3.5,0-7.2-2.5-9.7L84.1,86.9
	c-2.5-2.6-6.2-3.7-9.7-2.8c-3.5,0.9-6.2,3.5-7.2,7c-1,3.5,0,7.2,2.5,9.7L113.4,145.7z"/>
<path class="st0" d="M356.4,148.7c2.7,0,5.3-1.1,7.2-3l43.7-44.9c2.5-2.6,3.5-6.3,2.5-9.7s-3.7-6.1-7.2-7c-3.5-0.9-7.2,0.2-9.7,2.8
	l-43.7,44.9c-2.8,2.9-3.6,7.2-2,10.9C348.8,146.3,352.4,148.7,356.4,148.7z"/>
</svg>
